Coordinates
version=1
nRows=11
nColumns=36
inDegrees=yes

Units are S.I. units (second, meters, Newtons, ...)
If the header above contains a line with 'inDegrees', this indicates whether rotational values are in degrees (yes) or radians (no).

endheader
time	pelvis_tilt	pelvis_list	pelvis_rotation	pelvis_tx	pelvis_ty	pelvis_tz	hip_flexion_r	hip_adduction_r	hip_rotation_r	knee_angle_r	knee_angle_r_beta	ankle_angle_r	subtalar_angle_r	mtp_angle_r	hip_flexion_l	hip_adduction_l	hip_rotation_l	knee_angle_l	knee_angle_l_beta	ankle_angle_l	subtalar_angle_l	mtp_angle_l	lumbar_extension	lumbar_bending	lumbar_rotation	arm_flex_r	arm_add_r	arm_rot_r	elbow_flex_r	pro_sup_r	arm_flex_l	arm_add_l	arm_rot_l	elbow_flex_l	pro_sup_l
      0.00000000	     -5.62184185	     -2.31541967	     14.89169540	     -0.01955923	      1.27401413	      0.09711457	      9.65624805	     -1.00309399	     -3.65946206	      7.07180563	      0.12342629	      9.47817153	    -15.41931488	     -6.54959467	     15.26289897	      2.07144762	      4.78095685	     13.46975506	      0.23509158	      5.46670862	    -11.71208989	     -6.54959467	     -4.70490527	      0.53970533	     -4.46331542	      4.24582895	     -7.53245837	     14.81832492	     28.52972385	     79.18235577	     -0.48442548	     -9.04861077	      2.29941758	     37.78907185	     79.58593781
      0.01666670	     -6.65559934	     -3.75697655	     14.77810439	     -0.01072963	      1.27075118	      0.09404956	     10.38573513	      0.13946372	     -3.55264365	      6.67351354	      0.11647478	     10.81847924	    -14.38998168	     -6.62830497	     16.17236976	      1.05163203	      4.45686539	     12.74577935	      0.22245582	      6.88866632	    -10.45086687	     -6.62830497	     -1.84488883	      2.14723258	     -4.63141179	      2.92428061	     -7.23833973	     10.62741047	     29.35233003	     79.96439214	     -1.57994881	     -6.94840250	     -3.12610265	     37.05444255	     79.36325715
      0.03333330	     -7.13568407	     -3.74107052	     14.58911257	     -0.01055913	      1.27010087	      0.09448395	     10.11709038	     -0.04916083	     -3.72615447	      5.73780615	      0.10014361	     10.48528289	    -14.40249405	     -6.65831035	     16.43704146	      1.15822392	      3.51076925	     12.10267367	      0.21123150	      7.20195793	    -10.27902748	     -6.65831035	     -0.99951694	      1.85042689	     -4.73465773	      2.68439343	     -6.94066043	     10.24823602	     30.20037143	     79.37812146	     -2.16577581	     -7.01710511	     -3.30743993	     37.51425803	     78.75917728
      0.05000000	     -6.78121338	     -3.30349587	     14.37879118	     -0.01037681	      1.27386202	      0.09505362	      9.27364440	     -0.34337417	     -3.89933907	      4.88666493	      0.08528839	     10.79379389	    -13.43285626	     -6.82694818	     15.33241177	      1.32846050	      2.19605161	     10.86904773	      0.18970067	      7.56620845	     -8.80951796	     -6.82694818	     -1.50706052	      1.39957371	     -4.57463038	      2.47457771	     -6.60197260	      8.70420859	     31.08835073	     77.45973418	     -2.29146203	     -7.23629709	     -3.66241144	     38.26809085	     76.99513450
      0.06666670	     -6.62699476	     -3.05223483	     14.05713315	     -0.01049724	      1.27307230	      0.09558827	      8.83195270	     -0.49472797	     -3.71180903	      4.19131558	      0.07315226	     10.59306137	    -13.49348132	     -6.92059628	     14.77049566	      1.44837400	      1.76079417	     10.33290222	      0.18034317	      7.76771287	     -8.42868598	     -6.92059628	     -1.72771267	      1.20749715	     -4.17941418	      2.23453767	     -6.65114203	      8.52380341	     32.00156441	     76.62431772	     -2.48864972	     -7.43606497	     -3.24636329	     39.21459930	     76.33390473
      0.08333330	     -6.69852569	     -2.89025975	     13.72667061	     -0.01070270	      1.26935698	      0.09618512	      8.74866119	     -0.61015604	     -3.54606985	      3.76227584	      0.06566410	     10.28174228	    -13.50046422	     -7.05872523	     14.68324876	      1.52898298	      1.34836950	     10.15371749	      0.17721580	      8.13182794	     -8.01690760	     -7.05872523	     -1.61373503	      0.92121886	     -3.73105529	      1.86788063	     -6.55076300	      7.67294090	     32.58791327	     82.33654520	     -2.25457061	     -7.42642958	     -3.59658923	     39.29129997	     83.71533890
      0.10000000	     -6.79171717	     -2.79658903	     13.57225474	     -0.01070291	      1.26878782	      0.09630087	      8.74540052	     -0.69669985	     -3.53635583	      3.50218405	      0.06112464	     10.07612346	    -13.59447120	     -7.10593162	     14.67086824	      1.59617545	      1.21848419	     10.01979580	      0.17487843	      8.36644872	     -7.63206105	     -7.10593162	     -1.62374011	      0.75492530	     -3.86338903	      1.74777347	     -6.54623924	      8.08467294	     33.22856054	     81.29091272	     -2.08771815	     -7.46621324	     -3.36486424	     39.32329943	     82.63901717
      0.11666670	     -6.94317276	     -2.76835818	     13.40714374	     -0.01041177	      1.26853130	      0.09657618	      8.82038273	     -0.69396815	     -3.50068086	      3.39078329	      0.05918033	      9.90896964	    -13.71199332	     -7.13953419	     14.73776710	      1.60632639	      1.13761166	     10.04797859	      0.17537031	      8.64642804	     -7.35437551	     -7.13953419	     -1.50485368	      0.62867369	     -3.87353369	      1.81622282	     -6.64011405	      8.92667474	     33.44308261	     80.63063198	     -1.70938721	     -7.49443230	     -2.78795247	     39.38331793	     82.00041937
      0.13333330	     -7.22622319	     -2.82669249	     13.34769722	     -0.01042872	      1.26779522	      0.09649650	      9.18921094	     -0.65614669	     -3.33657459	      3.51199060	      0.06129580	      9.82570408	    -14.00893891	     -7.17653144	     15.06241678	      1.58758760	      1.29614565	     10.29352836	      0.17965596	      8.99051492	     -7.31549334	     -7.17653144	     -1.21575987	      0.62477409	     -3.93917085	      1.90647542	     -6.93656492	     10.39625549	     33.42843111	     80.36658337	     -1.60049281	     -7.70349923	     -1.78256350	     39.61204688	     81.88490793
      0.15000000	     -7.25939181	     -2.82383163	     13.28720693	     -0.00332978	      1.26797046	      0.09343882	      9.12190176	     -0.64955676	     -3.31946425	      3.58545716	      0.06257803	      9.78590579	    -14.00597990	     -7.17689968	     14.94028740	      1.54582308	      1.41555659	     10.33466496	      0.18037393	      9.02511899	     -7.27251419	     -7.17689968	     -1.16161198	      0.60200675	     -4.01148349	      1.74913621	     -6.94156957	     10.43308402	     33.41357096	     80.38036541	     -1.71795593	     -7.58865675	     -1.72894419	     39.61778206	     81.90639304
      0.16666670	     -7.81420104	     -3.00763216	     13.35669842	     -0.00311526	      1.26693160	      0.09310989	      9.63671682	     -0.61550132	     -3.75470613	      3.73908992	      0.06525943	      9.74144236	    -13.92150971	     -7.22315445	     15.41088350	      1.53428776	      1.55064844	     10.27182040	      0.17927709	      9.38999167	     -6.87307371	     -7.22315445	     -0.33236479	      0.70382564	     -4.23231479	      0.66432101	     -7.23924270	     10.59046358	     35.20432302	     78.54540209	     -2.70044383	     -7.59177360	     -1.44655246	     41.10731510	     80.04106136
